<?xml version="1.0" standalone="no"?>
<!DOCTYPE svg PUBLIC "-//W3C//DTD SVG 20010904//EN"
 "http://www.w3.org/TR/2001/REC-SVG-20010904/DTD/svg10.dtd">
<svg version="1.0" xmlns="http://www.w3.org/2000/svg"
 width="501.000000pt" height="501.000000pt" viewBox="0 0 501.000000 501.000000"
 preserveAspectRatio="xMidYMid meet">
<metadata>
Created by potrace 1.14, written by Peter Selinger 2001-2017
</metadata>
<g transform="translate(0.000000,501.000000) scale(0.100000,-0.100000)"
fill="#000000" stroke="none">
<path d="M2458 4385 c-2 -2 -19 -5 -38 -8 -52 -8 -88 -21 -157 -55 -72 -37
-140 -97 -431 -385 -110 -109 -135 -139 -146 -176 -28 -96 15 -173 128 -226
110 -53 173 -124 200 -228 56 -213 -93 -416 -311 -424 -148 -5 -283 80 -327
205 -46 130 -162 191 -264 138 -32 -16 -171 -147 -406 -381 -158 -158 -208
-262 -209 -434 0 -93 16 -159 58 -243 41 -81 47 -88 455 -508 137 -140 281
-289 320 -330 676 -700 724 -748 805 -792 37 -21 74 -38 82 -38 8 0 24 -5 35
-11 28 -15 193 -21 243 -8 22 5 48 11 57 14 41 9 116 49 163 84 53 42 78 65
480 456 142 138 281 273 310 300 773 747 795 769 834 839 29 53 54 118 67 180
9 40 4 166 -7 213 -30 120 -91 211 -246 366 l-98 98 82 84 c64 66 90 102 121
167 53 112 74 196 75 298 2 215 -57 363 -203 510 -140 142 -303 207 -507 204
-187 -4 -355 -76 -481 -206 l-53 -55 -132 131 c-135 134 -181 166 -292 200
-42 13 -199 29 -207 21z m139 -379 c17 -8 68 -54 113 -100 349 -358 347 -356
425 -356 83 0 139 46 179 148 34 87 74 142 132 181 234 155 540 -12 529 -289
-7 -156 -94 -268 -250 -320 -35 -12 -76 -31 -91 -42 -63 -50 -79 -167 -32
-233 12 -18 111 -123 218 -234 180 -185 218 -231 228 -271 8 -33 2 -92 -13
-124 -13 -27 -216 -231 -585 -586 -32 -30 -176 -170 -321 -311 -145 -141 -292
-282 -325 -315 -34 -32 -117 -112 -184 -178 -127 -122 -164 -146 -227 -146
-82 0 -92 10 -603 540 -40 41 -140 145 -224 231 -406 418 -633 653 -662 686
-53 59 -65 144 -30 210 13 25 234 248 263 266 8 5 31 -11 62 -41 132 -131 283
-192 480 -197 99 -2 126 2 200 24 155 47 281 134 371 255 151 206 177 486 66
717 -35 73 -43 84 -108 160 l-58 67 127 122 c71 69 144 130 167 141 47 21 107
20 153 -5z"/>
</g>
</svg>
